<?xml version="1.0" encoding="UTF-8"?>
<svg width="32px" height="36px" viewBox="0 0 32 36" version="1.1" xmlns="http://www.w3.org/2000/svg" xmlns:xlink="http://www.w3.org/1999/xlink">
    <!-- Generator: Sketch 52.5 (67469) - http://www.bohemiancoding.com/sketch -->
    <title>Combined Shape</title>
    <desc>Created with Sketch.</desc>
    <g id="Page-1" stroke="none" stroke-width="1" fill="none" fill-rule="evenodd">
        <path d="M30.5037624,17.2586201 L30.5737822,17.4313886 C31.0748515,18.6764541 31.4895842,19.8633537 31.4895842,21.7829869 C31.4895842,24.3697991 30.5753663,26.7756681 28.846099,28.7404192 C27.28,30.5206114 25.123802,31.8312314 22.7752871,32.4311266 C21.676198,32.7062358 20.8538614,32.861869 20.1283168,32.9992664 C19.3666535,33.1434236 18.7066931,33.2684017 17.8848317,33.4947773 C17.5876436,33.8074585 16.1771089,35.3200873 16.1623762,35.3361223 L16.046099,35.4609432 L15.9299802,35.3361223 C15.9150891,35.3200873 14.5042376,33.8068297 14.2072079,33.4947773 C13.3853465,33.2684017 12.7258614,33.1434236 11.964198,32.9992664 C11.2386535,32.861869 10.4163168,32.7065502 9.31675248,32.4308122 C5.53916832,31.4663581 2.43073267,28.7335022 1.20427723,25.2979389 C0.804594059,24.1795808 0.601980198,22.997083 0.601980198,21.7833013 C0.601980198,19.698131 1.10257426,18.4593537 1.5870099,17.260821 C2.06384158,16.0806812 2.51421782,14.9660961 2.51421782,13.0862358 C2.51421782,11.6993712 2.21908911,10.3315284 1.63722772,9.02075109 L0.632554455,6.75542358 L0.56,6.59193013 L0.732673267,6.54131004 L3.0970297,5.84882096 C4.0760396,5.56255022 4.79065347,4.82352838 5.22186139,3.65234934 L6.26423762,0.819353712 L6.34122772,0.610113537 L6.51405941,0.752069869 L8.83849505,2.66179913 C9.64815842,3.32724891 10.4777822,3.66461135 11.3045545,3.66461135 C12.6194059,3.66461135 13.7851881,2.97966812 14.4378614,2.33858515 L15.9344158,0.869344978 L16.0457822,0.759930131 L16.1571485,0.869344978 L17.6540198,2.33858515 C18.3068515,2.97966812 19.4726337,3.66461135 20.7868515,3.66461135 C21.6134653,3.66461135 22.4430891,3.3270917 23.2525941,2.66164192 L25.5768713,0.751912664 L25.749703,0.609956332 L25.8266931,0.819196507 L26.8689109,3.65203493 C27.3005941,4.82352838 28.0155248,5.56255022 28.9937426,5.84866376 L31.3582574,6.54115284 L31.5309307,6.59177293 L31.4583762,6.75526638 L30.4535446,9.02059389 C29.8716832,10.3315284 29.5767129,11.699214 29.5767129,13.0860786 C29.5771881,14.96531 30.0270891,16.0792664 30.5037624,17.2586201 Z M29.8279604,7.3831441 C29.8279604,7.3831441 26.1786931,7.06747598 25.1898614,2.66478603 C25.1898614,2.66478603 23.001505,4.90150218 20.7832079,4.90150218 C17.923802,4.90150218 16.0418218,2.48918777 16.0418218,2.48918777 C16.0418218,2.48918777 14.1598416,4.90150218 11.3002772,4.90150218 C9.08182178,4.90150218 6.89362376,2.66478603 6.89362376,2.66478603 C5.90463366,7.0679476 2.25473267,7.3831441 2.25473267,7.3831441 C2.25473267,7.3831441 3.73956436,9.9900786 3.73956436,13.0769607 C3.73956436,13.482393 3.7189703,13.8562271 3.68316832,14.2078952 C3.36871287,17.291476 1.83112871,18.5283668 1.83112871,21.7828297 C1.83112871,25.7753712 4.58724752,29.9669345 9.61916832,31.2302358 C12.0101386,31.8296594 13.6603564,31.9824629 14.8754059,32.4177642 C15.0308119,32.5620786 16.0419802,33.6496245 16.0419802,33.6496245 C16.0419802,33.6496245 17.0528317,32.5620786 17.2080792,32.4177642 C18.4231287,31.9824629 20.0736634,31.8298166 22.4638416,31.2302358 C27.4962376,29.9669345 30.2520396,25.7758428 30.2520396,21.7828297 C30.2520396,18.1579913 28.3439208,17.0371179 28.3439208,13.0771179 C28.3434455,9.9900786 29.8279604,7.3831441 29.8279604,7.3831441 Z M29.1795644,21.7829869 C29.1795644,26.3980611 25.555802,29.3360699 22.1959604,30.1826201 C19.5352079,30.8524716 17.7959604,30.929345 16.6276436,31.4883668 C16.6276436,31.4883668 16.202297,31.8739913 16.0418218,32.051476 C15.8805545,31.8739913 15.456,31.4883668 15.456,31.4883668 C14.2875248,30.929345 12.5484356,30.8524716 9.88752475,30.1826201 C6.52784158,29.3355983 2.90360396,26.3982183 2.90360396,21.7829869 C2.90360396,18.4823057 4.8129901,17.2702533 4.8129901,13.0772751 C4.8129901,10.2519825 3.73671287,8.07484716 3.73671287,8.07484716 C3.73671287,8.07484716 6.22051485,7.57760699 7.37758416,4.45755459 C7.37758416,4.45755459 9.02558416,5.98401747 11.3005941,5.98401747 C14.1498614,5.98401747 16.0421386,3.99867249 16.0421386,3.99867249 C16.0421386,3.99867249 17.934099,5.98401747 20.7835248,5.98401747 C23.0582178,5.98401747 24.7060594,4.45755459 24.7060594,4.45755459 C25.8634455,7.57760699 28.3474059,8.07484716 28.3474059,8.07484716 C28.3474059,8.07484716 27.2706535,10.2521397 27.2706535,13.0772751 C27.2700198,17.2702533 29.1795644,18.4823057 29.1795644,21.7829869 Z M20.7828911,7.19355459 C18.6550495,7.19355459 16.9918416,6.27248908 16.0413465,5.57905677 C15.0902178,6.27248908 13.4274851,7.19355459 11.2999604,7.19355459 C9.89528713,7.19355459 8.69956436,6.72193886 7.85679208,6.25362445 C7.07231683,7.55324017 6.08807921,8.30861135 5.30376238,8.73542358 C5.64087129,9.73697817 6.03215842,11.2846638 6.03215842,13.0769607 C6.03215842,16.5287162 4.84435644,18.1454148 4.34233663,20.0993188 L21.7628515,7.11731004 C21.450297,7.16588646 21.1226931,7.19355459 20.7828911,7.19355459 Z M9.94851485,28.9454148 C10.0280396,28.967738 10.1078812,28.9897467 10.1872475,29.0089258 C12.2949703,29.5407511 14.8728713,29.8146026 15.6511683,30.2561921 C15.8268515,30.3836856 16.0418218,30.6099039 16.0418218,30.6099039 C16.0418218,30.6099039 16.2563168,30.3836856 16.4318416,30.2561921 C17.2107723,29.8146026 19.7885149,29.5407511 21.896396,29.0089258 C24.8163168,28.2717904 27.9607129,25.6980262 27.9607129,21.7826725 C27.9607129,19.8311266 27.0981386,18.5466026 26.5321188,16.5860961 L9.94851485,28.9454148 Z M26.0503762,13.0774323 C26.0503762,11.2851354 26.4421386,9.73729258 26.7789307,8.7358952 C26.1078812,8.3700786 25.288396,7.76342358 24.5755248,6.78089083 L4.12689109,22.019738 C4.22463366,25.0165415 6.17647525,27.1985502 8.40554455,28.3356157 L26.197703,15.0764541 C26.1059802,14.4808035 26.0503762,13.8221135 26.0503762,13.0774323 Z M13.2186931,23.4029869 L11.6364356,24.5815546 L9.9299802,21.9886114 L9.9299802,25.854131 L8.43310891,26.969345 L8.43310891,21.5025328 C8.43310891,20.7301834 7.69013861,20.7095895 7.69013861,20.7095895 L9.81180198,19.1284192 L11.7221386,22.0316856 L11.7221386,17.7047686 L13.2190099,16.5892402 L13.2190099,23.4029869 L13.2186931,23.4029869 Z M19.2554455,18.904559 L17.792,19.9954061 L17.792,17.5040175 L16.1029703,18.7619738 L16.1029703,21.2541485 L14.5650693,22.4000175 L14.5650693,16.9327336 C14.5650693,16.1602271 13.822099,16.1396332 13.822099,16.1396332 L16.1029703,14.4400873 L16.1029703,16.9582009 L17.792,15.7000873 L17.792,13.1824454 L19.2554455,12.0903406 L19.2554455,18.904559 Z M24.7786139,14.7884541 L20.5329109,17.952524 L20.5329109,12.4857118 C20.5329109,11.7127336 19.7899406,11.6922969 19.7899406,11.6922969 L22.070495,9.99275109 L22.070495,15.0673362 L24.7787723,13.0497642 C24.7786139,13.0497642 24.6865743,13.6980786 24.7786139,14.7884541 Z" id="Combined-Shape" fill="#E4E5E6"></path>
    </g>
</svg>